<?xml version="1.0" encoding="utf-8"?>
<!-- Generator: Adobe Illustrator 16.0.0, SVG Export Plug-In . SVG Version: 6.00 Build 0)  -->
<!DOCTYPE svg PUBLIC "-//W3C//DTD SVG 1.1//EN" "http://www.w3.org/Graphics/SVG/1.1/DTD/svg11.dtd" [
	<!ENTITY ns_extend "http://ns.adobe.com/Extensibility/1.0/">
	<!ENTITY ns_ai "http://ns.adobe.com/AdobeIllustrator/10.0/">
	<!ENTITY ns_graphs "http://ns.adobe.com/Graphs/1.0/">
	<!ENTITY ns_vars "http://ns.adobe.com/Variables/1.0/">
	<!ENTITY ns_imrep "http://ns.adobe.com/ImageReplacement/1.0/">
	<!ENTITY ns_sfw "http://ns.adobe.com/SaveForWeb/1.0/">
	<!ENTITY ns_custom "http://ns.adobe.com/GenericCustomNamespace/1.0/">
	<!ENTITY ns_adobe_xpath "http://ns.adobe.com/XPath/1.0/">
]>
<svg version="1.1" id="Layer_1" xmlns:x="&ns_extend;" xmlns:i="&ns_ai;" xmlns:graph="&ns_graphs;"
	 xmlns="http://www.w3.org/2000/svg" xmlns:xlink="http://www.w3.org/1999/xlink" x="0px" y="0px" width="888px" height="600px"
	 viewBox="0 0 888 600" enable-background="new 0 0 888 600" xml:space="preserve">
<metadata>
	<sfw  xmlns="&ns_sfw;">
		<slices></slices>
		<sliceSourceBounds  height="105.059" width="631.476" y="-352.529" x="126.393" bottomLeftOrigin="true"></sliceSourceBounds>
		<optimizationSettings>
			<targetSettings  fileFormat="PNG24Format" targetSettingsID="0">
				<PNG24Format  transparency="true" filtered="false" interlaced="false" noMatteColor="false" matteColor="#FFFFFF">
					</PNG24Format>
			</targetSettings>
		</optimizationSettings>
	</sfw>
</metadata>
<g>
	<path fill="#2075BC" d="M366.777,261.167c0,5.869-8.917,5.869-8.917,0S366.777,255.298,366.777,261.167z M359.44,279.113v55.983
		h5.53v-55.983H359.44z"/>
	<path fill="#2075BC" d="M386.19,279.339v9.933c4.288-7.676,12.076-10.835,19.864-10.948c14.898,0,25.169,9.143,25.169,24.604
		v32.168h-5.529v-32.055c0-12.643-7.788-19.414-19.865-19.301c-11.513,0.113-19.526,8.804-19.526,20.315v31.039h-5.529v-55.757
		L386.19,279.339L386.19,279.339z"/>
	<path fill="#2075BC" d="M499.173,256.088v79.008h-5.418v-12.303c-4.628,8.465-13.77,13.206-23.251,13.206
		c-15.576,0-27.879-10.271-27.879-28.782c0-18.396,12.416-28.781,27.992-28.781c9.594,0,18.623,4.063,23.138,13.093v-35.441H499.173
		L499.173,256.088z M448.043,307.218c0,15.463,10.271,23.364,22.8,23.364c13.093,0,22.8-9.594,22.8-23.477
		c0-13.884-9.933-23.364-22.8-23.364C458.314,283.741,448.043,291.529,448.043,307.218z"/>
	<path fill="#2075BC" d="M513.168,307.218c0-16.704,12.641-28.781,28.33-28.781c15.688,0,29.685,9.594,27.54,31.378h-50.228
		c1.129,13.093,11.175,20.653,22.688,20.653c7.336,0,15.914-2.935,20.091-8.465l3.95,3.16c-5.418,7.111-15.125,10.723-24.041,10.723
		C525.809,335.887,513.168,324.938,513.168,307.218z M564.071,304.961c-0.112-13.771-9.143-21.445-22.573-21.445
		c-11.513,0-21.445,7.789-22.688,21.445H564.071z"/>
	<path fill="#2075BC" d="M601.883,302.139l16.592-22.799h6.659v0.226l-19.978,26.637l21.559,28.669v0.226h-6.547l-18.285-24.943
		l-18.284,24.943h-6.547v-0.226l21.56-28.669l-19.979-26.637v-0.226h6.659L601.883,302.139z"/>
	<path fill="#2075BC" d="M637.781,333.299c0,3.116-4.733,3.116-4.733,0C633.048,330.184,637.781,330.184,637.781,333.299z"/>
	<path fill="#2075BC" d="M669.001,330.962c-2.996,2.996-6.891,4.436-10.785,4.436c-8.329,0-15.221-5.754-15.221-15.102
		s6.651-15.1,15.221-15.1c3.896,0,7.789,1.498,10.785,4.434l-1.917,1.857c-2.396-2.396-5.692-3.535-8.868-3.535
		c-6.712,0-12.344,4.374-12.344,12.344s5.632,12.344,12.344,12.344c3.176,0,6.411-1.258,8.809-3.654L669.001,330.962z"/>
	<path fill="#2075BC" d="M674.217,320.356c0-9.408,6.711-15.4,15.04-15.4s15.04,5.992,15.04,15.4c0,9.406-6.711,15.159-15.04,15.159
		S674.217,329.764,674.217,320.356z M701.421,320.356c0-7.671-5.453-12.645-12.164-12.645c-6.712,0-12.164,4.974-12.164,12.645
		c0,7.67,5.452,12.282,12.164,12.282C695.968,332.64,701.421,328.026,701.421,320.356z"/>
	<path fill="#2075BC" d="M754.933,335.097V317.36c0-5.693-3.835-9.708-9.468-9.708s-9.527,4.194-9.527,9.888v17.557h-2.937V317.54
		c0-5.692-3.896-9.827-9.527-9.827s-9.468,4.135-9.468,9.827v17.557h-2.936v-29.602h2.756l0.061,4.914
		c2.037-3.896,5.813-5.513,9.647-5.513c4.493,0,9.228,2.036,10.965,7.311c1.798-4.854,6.412-7.311,10.966-7.311
		c7.251,0,12.403,5.093,12.403,12.464v17.735L754.933,335.097L754.933,335.097z"/>
</g>
<path fill="#2075BC" stroke="#FFFFFF" stroke-miterlimit="10" d="M304.262,309.589c-0.081-9.495-0.164-18.988-0.243-28.485
	c-0.005-0.55-0.024-1.1-0.002-1.649c0.068-1.837,0.32-2.119,2.214-2.164c2.61-0.06,5.23-0.082,7.846-0.066
	c1.964,0.014,2.206,0.295,2.285,2.3c0.021,0.411,0.015,0.827,0.019,1.24c0.156,18.438,0.313,36.878,0.472,55.32
	c0.002,0.412,0.011,0.824,0.003,1.237c-0.041,2.048-0.252,2.347-2.159,2.962c-2.625,0.845-5.315,1.432-8.044,1.796
	c-1.567,0.205-1.97-0.15-2.102-1.734c-0.052-0.619-0.035-1.241-0.041-1.856C304.427,328.854,304.344,319.224,304.262,309.589z"/>
<path fill="#2075BC" d="M332.405,285.538c-0.022-2.046-0.044-4.092-0.066-6.139c0-0.042,0.016-0.12,0.041-0.217
	c-0.004-1.551-0.006-3.134-0.007-4.727c-3.319-3.569-6.875-6.869-10.619-9.959c-0.654-0.337-1.313-0.667-1.959-1.018
	c-0.128,0.394-0.166,0.941-0.171,1.745c-0.003,0.573,0.01,1.144,0.015,1.719c0.124,11.019,0.246,22.04,0.37,33.058
	c0.123,11.239,0.249,22.476,0.375,33.711c0.003,0.571-0.006,1.151,0.033,1.719c0.111,1.71,0.534,1.979,1.936,1.112
	c3.293-2.036,6.37-4.352,9.078-7.135c1.014-1.043,1.46-2.169,1.441-3.634c-0.134-10.141-0.249-20.281-0.36-30.421
	C332.463,292.993,332.428,289.539,332.405,285.538z"/>
<path fill="#2075BC" stroke="#FFFFFF" stroke-width="2" stroke-miterlimit="10" d="M300.135,316.681
	c0.062,7.225,0.125,14.448,0.187,21.672c0.004,0.55,0.023,1.1,0.004,1.65c-0.065,1.986-0.541,2.385-2.549,2.167
	c-2.534-0.274-5.024-0.787-7.474-1.489c-2.183-0.622-2.366-0.806-2.388-3.159c-0.101-10.871-0.189-21.738-0.281-32.609
	c-0.032-3.785-0.082-7.568-0.089-11.354c-0.003-2.225,0.24-2.461,2.51-2.5c2.476-0.052,4.954-0.072,7.429-0.067
	c2.119,0.012,2.407,0.28,2.444,2.365c0.063,3.988,0.08,7.981,0.115,11.972C300.074,309.11,300.104,312.896,300.135,316.681z"/>
<path fill="#2075BC" stroke="#FFFFFF" stroke-width="2" stroke-miterlimit="10" d="M284.934,320.819
	c0.039,4.403,0.077,8.813,0.113,13.218c0.003,0.484,0.027,0.964,0.001,1.448c-0.083,1.424-0.433,1.672-1.62,1.016
	c-2.476-1.365-4.896-2.843-6.974-4.771c-4.249-3.942-3.473-2.69-3.557-7.912c-0.091-5.65-0.112-11.295-0.15-16.94
	c-0.017-2.646,0.095-2.75,2.81-2.784c2.203-0.029,4.405-0.048,6.61-0.056c2.455-0.005,2.613,0.133,2.641,2.525
	C284.864,311.315,284.895,316.066,284.934,320.819z"/>
<path fill="#2075BC" stroke="#1C75BC" stroke-width="6" stroke-miterlimit="10" d="M129.393,348.423v-96.846h7.333v96.846H129.393z"
	/>
<path fill="#2075BC" stroke="#1C75BC" stroke-width="6" stroke-miterlimit="10" d="M236.997,335.003
	c-9.685,9.685-22.551,14.526-35.28,14.526c-32.651,0-49.668-22.827-49.807-48.976c-0.276-25.872,16.603-50.083,49.807-50.083
	c12.729,0,25.595,4.842,35.28,14.527l-5.119,4.427c-8.301-8.301-19.231-12.313-30.161-12.313c-28.224,0-42.75,19.923-42.612,43.166
	c0.277,22.689,14.666,42.336,42.612,42.336c10.93,0,21.998-4.15,30.299-12.313L236.997,335.003z"/>
<path fill="#2075BC" stroke="#1C75BC" stroke-width="2" stroke-miterlimit="10" d="M350.374,301.054
	c-0.138,25.457-16.325,49.945-48.838,49.945s-48.838-24.627-48.838-50.223c0-26.01,16.187-49.806,48.838-49.806
	S350.513,274.905,350.374,301.054z M260.031,300.915c0.138,21.859,13.974,43.166,41.505,43.166c27.67,0,41.644-21.307,41.644-43.166
	c0-22.412-13.835-43.027-41.644-43.027S259.893,278.087,260.031,300.915z"/>
<path fill="#2075BC" stroke="#1C75BC" stroke-width="3" stroke-miterlimit="10" d="M353.374,301.054
	c-0.138,25.457-16.325,49.945-48.838,49.945s-48.838-24.627-48.838-50.223c0-26.01,16.187-49.806,48.838-49.806
	S353.513,274.905,353.374,301.054z M263.031,300.915c0.138,21.859,13.974,43.166,41.505,43.166c27.67,0,41.644-21.307,41.644-43.166
	c0-22.412-13.835-43.027-41.644-43.027S262.893,278.087,263.031,300.915z"/>
</svg>
